# xmcd CD database file
#
# Track frame offsets:
#	150
#	24150
#	45355
#	69622
#
# Disc length: 1208 seconds
#
# Revision: 0
# Processed by: cddbd v1.5.1PL2 Copyright (c) Steve Scherf et al.
# Submitted via: CDex 1.51
#
DISCID=2604b604
DTITLE=月の203号室 - しあわせのうた
DYEAR=2005
DGENRE=JPop
TTITLE0=しあわせのうた
TTITLE1=恋人であり、親友でもあり
TTITLE2=しあわせのうた(KARAOKE)
TTITLE3=恋人であり、親友でもあり(KARAOKE)
EXTD=YEAR: 2005
EXTT0=
EXTT1=
EXTT2=
EXTT3=
PLAYORDER=
